<?xml version="1.0" encoding="UTF-8" standalone="no"?>
<!-- Generator: Adobe Illustrator 16.0.4, SVG Export Plug-In . SVG Version: 6.00 Build 0)  -->

<svg
   xmlns:dc="http://purl.org/dc/elements/1.1/"
   xmlns:cc="http://creativecommons.org/ns#"
   xmlns:rdf="http://www.w3.org/1999/02/22-rdf-syntax-ns#"
   xmlns:svg="http://www.w3.org/2000/svg"
   xmlns="http://www.w3.org/2000/svg"
   xmlns:sodipodi="http://sodipodi.sourceforge.net/DTD/sodipodi-0.dtd"
   xmlns:inkscape="http://www.inkscape.org/namespaces/inkscape"
   version="1.1"
   id="Layer_1"
   x="0px"
   y="0px"
   width="564.1px"
   height="488.98px"
   viewBox="0 0 564.1 488.98"
   enable-background="new 0 0 564.1 488.98"
   xml:space="preserve"
   sodipodi:docname="GreenLANLogo_official.svg"
   inkscape:version="0.92.3 (2405546, 2018-03-11)"><metadata
   id="metadata4022"><rdf:RDF><cc:Work
       rdf:about=""><dc:format>image/svg+xml</dc:format><dc:type
         rdf:resource="http://purl.org/dc/dcmitype/StillImage" /><dc:title></dc:title><cc:license
         rdf:resource="http://creativecommons.org/licenses/by-sa/4.0/" /></cc:Work><cc:License
       rdf:about="http://creativecommons.org/licenses/by-sa/4.0/"><cc:permits
         rdf:resource="http://creativecommons.org/ns#Reproduction" /><cc:permits
         rdf:resource="http://creativecommons.org/ns#Distribution" /><cc:requires
         rdf:resource="http://creativecommons.org/ns#Notice" /><cc:requires
         rdf:resource="http://creativecommons.org/ns#Attribution" /><cc:permits
         rdf:resource="http://creativecommons.org/ns#DerivativeWorks" /><cc:requires
         rdf:resource="http://creativecommons.org/ns#ShareAlike" /></cc:License></rdf:RDF></metadata><defs
   id="defs4020" /><sodipodi:namedview
   pagecolor="#ffffff"
   bordercolor="#666666"
   borderopacity="1"
   objecttolerance="10"
   gridtolerance="10"
   guidetolerance="10"
   inkscape:pageopacity="0"
   inkscape:pageshadow="2"
   inkscape:window-width="1680"
   inkscape:window-height="987"
   id="namedview4018"
   showgrid="false"
   inkscape:zoom="1"
   inkscape:cx="112.65761"
   inkscape:cy="269.52139"
   inkscape:window-x="-8"
   inkscape:window-y="-8"
   inkscape:window-maximized="1"
   inkscape:current-layer="Layer_1" />
<polygon
   fill="#009C3D"
   points="282.05,0 564.1,488.98 0,488.98 "
   id="polygon3991" />


<path
   fill="#FFFFFF"
   d="M12.759,481.891L278.585,21.588l3.465-5.998L551.34,481.89L12.759,481.891L12.759,481.891z M26.618,473.889  h510.859L282.05,31.59L26.618,473.889L26.618,473.889z"
   id="path4015" />
<path
   inkscape:connector-curvature="0"
   d="m 360.50053,241.36255 -57.7776,57.90348 21.27323,21.27324 5.28684,-5.41272 -5.28684,-8.93728 30.21052,-30.2105 -7.17501,-7.175 20.51798,-20.3921 z m -178.74552,5.03508 c -3.77632,0 -7.55264,3.77631 -7.55264,7.55263 v 78.04383 c 0,3.7763 3.77632,7.55261 7.55264,7.55261 h 71.12057 l 6.92324,-10.07016 v -25.17543 h -5.03508 v 25.17543 h -5.03509 v -25.17543 h -5.03509 v 25.17543 h -5.03508 v -25.17543 h -5.03509 v 25.17543 h -5.03509 v -25.17543 h -5.03508 v 25.17543 h -5.03508 v -25.17543 h -5.03508 v 25.17543 h -5.03509 v -25.17543 h -5.03509 v 25.17543 h -17.62279 l -2.51754,-2.51754 v -17.62281 l 2.51754,-1.25877 v -13.84647 l -2.51754,-1.25877 v -13.84649 l 2.51754,-2.51755 h 18.88156 l 0.62939,-10.07016 h 9.44079 l 1.25877,-10.07018 h 30.21051 l 1.25878,10.07018 h 9.44079 l 0.62938,10.07016 h 18.88157 l 2.51755,2.51755 v 13.84649 l -2.51755,1.25877 v 8.81139 l 3.77631,-5.66447 8.8114,-6.92324 v -36.50437 c 0,-3.77632 -3.77632,-7.55263 -7.55263,-7.55263 z m 189.3192,5.5386 -17.87455,17.74866 3.52456,3.52457 17.74868,-17.87454 z m 7.175,7.17499 -17.87455,17.74868 3.52456,3.52456 17.74867,-17.87456 z m 7.175,7.175 -17.87456,17.74867 3.52456,3.52456 17.74867,-17.87456 z m 7.04911,7.04912 -17.87454,17.74867 3.52455,3.52456 17.74867,-17.87455 z m -34.74208,6.16797 -27.56709,27.56711 5.41271,8.93727 -24.92367,24.92367 10.69956,10.69955 24.92367,-24.92367 8.93727,5.28685 27.56709,-27.56709 z m 41.91708,0.88115 -17.87455,17.74868 3.52455,3.52455 17.74868,-17.87455 z m 7.175,7.17499 -17.87455,17.87455 3.52455,3.52457 17.74868,-17.87456 z m 7.17499,7.17501 -20.51798,20.51797 -7.30087,-7.30087 -30.21051,30.33638 -8.93728,-5.41272 -5.4127,5.41272 21.39911,21.39911 57.90348,-57.90347 z m -119.33152,1.76227 -8.05614,6.29386 -19.88857,29.95875 22.53199,22.53201 -5.41271,5.28684 -21.52499,-21.39911 -5.66446,8.55964 20.01446,20.01446 -5.28684,5.41273 -19.00746,-18.88158 -5.66447,8.55965 17.49693,17.49693 -5.41271,5.4127 -16.36404,-16.36403 -5.66448,8.55966 14.97938,14.97937 -5.41271,5.41271 -13.97236,-13.97235 -5.66447,8.55964 12.46183,12.46183 C 185.90895,464.5427 113.78136,382.34493 166.64974,321.92391 v -18.88157 c -98.184147,84.33767 16.36404,200.39638 90.50566,119.83504 l 12.46185,12.46182 8.55964,-5.66447 -13.84647,-13.97236 5.28683,-5.28684 14.97938,14.97938 8.55965,-5.66447 -16.48991,-16.36403 5.41272,-5.41272 17.49692,17.49693 8.55964,-5.66448 -19.00745,-18.88156 5.41272,-5.41272 20.01447,20.01446 8.55964,-5.66446 -21.52499,-21.525 5.41271,-5.41271 22.53201,22.532 29.95876,-19.88857 6.16798,-8.05615 -26.68596,-26.68595 -20.51798,20.51797 -17.87454,-17.87455 20.51797,-20.51797 z"
   id="path3723"
   style="fill:#fffffc;fill-opacity:1;stroke-width:1.2587713" /></svg>